<mxfile host="65bd71144e" pages="3">
    <diagram id="C5RBs43oDa-KdzZeNtuy" name="페이지 흐름도">
        <mxGraphModel dx="1204" dy="790" grid="1" gridSize="10" guides="1" tooltips="1" connect="1" arrows="1" fold="1" page="1" pageScale="1" pageWidth="827" pageHeight="1169" math="0" shadow="0">
            <root>
                <mxCell id="WIyWlLk6GJQsqaUBKTNV-0"/>
                <mxCell id="WIyWlLk6GJQsqaUBKTNV-1" parent="WIyWlLk6GJQsqaUBKTNV-0"/>
                <mxCell id="bIqAL9eKwdkb0QIvsxLQ-2" value="" style="edgeStyle=orthogonalEdgeStyle;rounded=0;orthogonalLoop=1;jettySize=auto;html=1;" parent="WIyWlLk6GJQsqaUBKTNV-1" source="bIqAL9eKwdkb0QIvsxLQ-0" target="bIqAL9eKwdkb0QIvsxLQ-1" edge="1">
                    <mxGeometry relative="1" as="geometry">
                        <Array as="points">
                            <mxPoint x="150" y="380"/>
                            <mxPoint x="150" y="310"/>
                        </Array>
                    </mxGeometry>
                </mxCell>
                <mxCell id="bIqAL9eKwdkb0QIvsxLQ-4" value="" style="edgeStyle=orthogonalEdgeStyle;rounded=0;orthogonalLoop=1;jettySize=auto;html=1;" parent="WIyWlLk6GJQsqaUBKTNV-1" source="bIqAL9eKwdkb0QIvsxLQ-0" target="bIqAL9eKwdkb0QIvsxLQ-3" edge="1">
                    <mxGeometry relative="1" as="geometry">
                        <Array as="points">
                            <mxPoint x="150" y="380"/>
                            <mxPoint x="150" y="120"/>
                        </Array>
                    </mxGeometry>
                </mxCell>
                <mxCell id="bIqAL9eKwdkb0QIvsxLQ-7" value="" style="edgeStyle=orthogonalEdgeStyle;rounded=0;orthogonalLoop=1;jettySize=auto;html=1;" parent="WIyWlLk6GJQsqaUBKTNV-1" source="bIqAL9eKwdkb0QIvsxLQ-0" target="bIqAL9eKwdkb0QIvsxLQ-6" edge="1">
                    <mxGeometry relative="1" as="geometry">
                        <Array as="points">
                            <mxPoint x="150" y="380"/>
                            <mxPoint x="150" y="480"/>
                        </Array>
                    </mxGeometry>
                </mxCell>
                <mxCell id="bIqAL9eKwdkb0QIvsxLQ-10" value="" style="edgeStyle=orthogonalEdgeStyle;rounded=0;orthogonalLoop=1;jettySize=auto;html=1;" parent="WIyWlLk6GJQsqaUBKTNV-1" source="bIqAL9eKwdkb0QIvsxLQ-0" target="bIqAL9eKwdkb0QIvsxLQ-9" edge="1">
                    <mxGeometry relative="1" as="geometry">
                        <Array as="points">
                            <mxPoint x="150" y="380"/>
                            <mxPoint x="150" y="690"/>
                        </Array>
                    </mxGeometry>
                </mxCell>
                <mxCell id="bIqAL9eKwdkb0QIvsxLQ-0" value="메인 페이지&lt;br&gt;(각 페이지 링크)" style="ellipse;whiteSpace=wrap;html=1;" parent="WIyWlLk6GJQsqaUBKTNV-1" vertex="1">
                    <mxGeometry x="10" y="340" width="110" height="80" as="geometry"/>
                </mxCell>
                <mxCell id="3" value="" style="edgeStyle=none;html=1;" edge="1" parent="WIyWlLk6GJQsqaUBKTNV-1" source="bIqAL9eKwdkb0QIvsxLQ-1" target="2">
                    <mxGeometry relative="1" as="geometry"/>
                </mxCell>
                <mxCell id="bIqAL9eKwdkb0QIvsxLQ-1" value="순위표(고티어)" style="whiteSpace=wrap;html=1;" parent="WIyWlLk6GJQsqaUBKTNV-1" vertex="1">
                    <mxGeometry x="195" y="280" width="120" height="60" as="geometry"/>
                </mxCell>
                <mxCell id="bIqAL9eKwdkb0QIvsxLQ-12" value="" style="edgeStyle=orthogonalEdgeStyle;rounded=0;orthogonalLoop=1;jettySize=auto;html=1;" parent="WIyWlLk6GJQsqaUBKTNV-1" source="bIqAL9eKwdkb0QIvsxLQ-3" target="bIqAL9eKwdkb0QIvsxLQ-11" edge="1">
                    <mxGeometry relative="1" as="geometry"/>
                </mxCell>
                <mxCell id="bIqAL9eKwdkb0QIvsxLQ-3" value="이번 시즌 설명" style="whiteSpace=wrap;html=1;" parent="WIyWlLk6GJQsqaUBKTNV-1" vertex="1">
                    <mxGeometry x="195" y="90" width="120" height="60" as="geometry"/>
                </mxCell>
                <mxCell id="5" value="" style="edgeStyle=none;html=1;" edge="1" parent="WIyWlLk6GJQsqaUBKTNV-1" source="bIqAL9eKwdkb0QIvsxLQ-6" target="4">
                    <mxGeometry relative="1" as="geometry"/>
                </mxCell>
                <mxCell id="bIqAL9eKwdkb0QIvsxLQ-6" value="순위표(저티어)" style="whiteSpace=wrap;html=1;" parent="WIyWlLk6GJQsqaUBKTNV-1" vertex="1">
                    <mxGeometry x="195" y="450" width="120" height="60" as="geometry"/>
                </mxCell>
                <mxCell id="7" value="" style="edgeStyle=none;html=1;" edge="1" parent="WIyWlLk6GJQsqaUBKTNV-1" source="bIqAL9eKwdkb0QIvsxLQ-9" target="6">
                    <mxGeometry relative="1" as="geometry"/>
                </mxCell>
                <mxCell id="bIqAL9eKwdkb0QIvsxLQ-9" value="관련 지원페이지 연결" style="whiteSpace=wrap;html=1;" parent="WIyWlLk6GJQsqaUBKTNV-1" vertex="1">
                    <mxGeometry x="195" y="660" width="120" height="60" as="geometry"/>
                </mxCell>
                <mxCell id="1" value="" style="edgeStyle=none;html=1;" edge="1" parent="WIyWlLk6GJQsqaUBKTNV-1" source="bIqAL9eKwdkb0QIvsxLQ-11" target="0">
                    <mxGeometry relative="1" as="geometry"/>
                </mxCell>
                <mxCell id="bIqAL9eKwdkb0QIvsxLQ-11" value="반응형 웹페이지" style="whiteSpace=wrap;html=1;" parent="WIyWlLk6GJQsqaUBKTNV-1" vertex="1">
                    <mxGeometry x="395" y="90" width="120" height="60" as="geometry"/>
                </mxCell>
                <mxCell id="0" value="링크로 페이지연결" style="whiteSpace=wrap;html=1;" vertex="1" parent="WIyWlLk6GJQsqaUBKTNV-1">
                    <mxGeometry x="595" y="90" width="120" height="60" as="geometry"/>
                </mxCell>
                <mxCell id="tNH6CW4NSPpFItCzDp8T-10" value="" style="edgeStyle=none;html=1;" edge="1" parent="WIyWlLk6GJQsqaUBKTNV-1" source="2" target="tNH6CW4NSPpFItCzDp8T-9">
                    <mxGeometry relative="1" as="geometry"/>
                </mxCell>
                <mxCell id="2" value="티어선택" style="whiteSpace=wrap;html=1;" vertex="1" parent="WIyWlLk6GJQsqaUBKTNV-1">
                    <mxGeometry x="390" y="280" width="120" height="60" as="geometry"/>
                </mxCell>
                <mxCell id="tNH6CW4NSPpFItCzDp8T-8" value="" style="edgeStyle=none;html=1;" edge="1" parent="WIyWlLk6GJQsqaUBKTNV-1" source="4" target="tNH6CW4NSPpFItCzDp8T-7">
                    <mxGeometry relative="1" as="geometry"/>
                </mxCell>
                <mxCell id="4" value="티어,등급 선택" style="whiteSpace=wrap;html=1;" vertex="1" parent="WIyWlLk6GJQsqaUBKTNV-1">
                    <mxGeometry x="395" y="450" width="120" height="60" as="geometry"/>
                </mxCell>
                <mxCell id="6" value="링크로 페이지 연결" style="whiteSpace=wrap;html=1;" vertex="1" parent="WIyWlLk6GJQsqaUBKTNV-1">
                    <mxGeometry x="395" y="660" width="120" height="60" as="geometry"/>
                </mxCell>
                <mxCell id="tNH6CW4NSPpFItCzDp8T-7" value="각 티어별 점수 순위 출력" style="whiteSpace=wrap;html=1;" vertex="1" parent="WIyWlLk6GJQsqaUBKTNV-1">
                    <mxGeometry x="595" y="450" width="120" height="60" as="geometry"/>
                </mxCell>
                <mxCell id="tNH6CW4NSPpFItCzDp8T-9" value="각 티어 점수별 순위 출력" style="whiteSpace=wrap;html=1;" vertex="1" parent="WIyWlLk6GJQsqaUBKTNV-1">
                    <mxGeometry x="590" y="280" width="120" height="60" as="geometry"/>
                </mxCell>
            </root>
        </mxGraphModel>
    </diagram>
    <diagram id="pEhGIrTKw9ZSsi3CthCk" name="페이지 구성">
        <mxGraphModel dx="2031" dy="790" grid="1" gridSize="10" guides="1" tooltips="1" connect="1" arrows="1" fold="1" page="1" pageScale="1" pageWidth="827" pageHeight="1169" math="0" shadow="0">
            <root>
                <mxCell id="0"/>
                <mxCell id="1" parent="0"/>
                <mxCell id="cZAD780QYgb0k3q2szr9-3" value="" style="edgeStyle=orthogonalEdgeStyle;rounded=0;orthogonalLoop=1;jettySize=auto;html=1;fontSize=18;" parent="1" source="cZAD780QYgb0k3q2szr9-1" target="cZAD780QYgb0k3q2szr9-2" edge="1">
                    <mxGeometry relative="1" as="geometry"/>
                </mxCell>
                <mxCell id="cZAD780QYgb0k3q2szr9-7" style="edgeStyle=orthogonalEdgeStyle;rounded=0;orthogonalLoop=1;jettySize=auto;html=1;entryX=0.5;entryY=0;entryDx=0;entryDy=0;fontSize=18;" parent="1" source="cZAD780QYgb0k3q2szr9-1" target="cZAD780QYgb0k3q2szr9-5" edge="1">
                    <mxGeometry relative="1" as="geometry">
                        <Array as="points">
                            <mxPoint x="440" y="150"/>
                            <mxPoint x="230" y="150"/>
                        </Array>
                    </mxGeometry>
                </mxCell>
                <mxCell id="cZAD780QYgb0k3q2szr9-8" style="edgeStyle=orthogonalEdgeStyle;rounded=0;orthogonalLoop=1;jettySize=auto;html=1;fontSize=18;" parent="1" source="cZAD780QYgb0k3q2szr9-1" target="cZAD780QYgb0k3q2szr9-4" edge="1">
                    <mxGeometry relative="1" as="geometry">
                        <Array as="points">
                            <mxPoint x="440" y="150"/>
                            <mxPoint x="10" y="150"/>
                        </Array>
                    </mxGeometry>
                </mxCell>
                <mxCell id="cZAD780QYgb0k3q2szr9-9" style="edgeStyle=orthogonalEdgeStyle;rounded=0;orthogonalLoop=1;jettySize=auto;html=1;fontSize=18;" parent="1" source="cZAD780QYgb0k3q2szr9-1" target="cZAD780QYgb0k3q2szr9-6" edge="1">
                    <mxGeometry relative="1" as="geometry">
                        <Array as="points">
                            <mxPoint x="440" y="150"/>
                            <mxPoint x="660" y="150"/>
                        </Array>
                    </mxGeometry>
                </mxCell>
                <mxCell id="cZAD780QYgb0k3q2szr9-1" value="&lt;font style=&quot;font-size: 18px;&quot;&gt;메인 페이지&lt;/font&gt;" style="rounded=0;whiteSpace=wrap;html=1;" parent="1" vertex="1">
                    <mxGeometry x="340" y="50" width="200" height="80" as="geometry"/>
                </mxCell>
                <mxCell id="cZAD780QYgb0k3q2szr9-18" style="edgeStyle=orthogonalEdgeStyle;rounded=0;orthogonalLoop=1;jettySize=auto;html=1;exitX=0.5;exitY=1;exitDx=0;exitDy=0;entryX=0.5;entryY=0;entryDx=0;entryDy=0;fontSize=18;" parent="1" source="cZAD780QYgb0k3q2szr9-2" target="cZAD780QYgb0k3q2szr9-15" edge="1">
                    <mxGeometry relative="1" as="geometry"/>
                </mxCell>
                <mxCell id="cZAD780QYgb0k3q2szr9-2" value="&lt;span style=&quot;font-size: 18px;&quot;&gt;개인 기록검색&lt;/span&gt;" style="rounded=0;whiteSpace=wrap;html=1;" parent="1" vertex="1">
                    <mxGeometry x="340" y="200" width="200" height="80" as="geometry"/>
                </mxCell>
                <mxCell id="cZAD780QYgb0k3q2szr9-30" style="edgeStyle=orthogonalEdgeStyle;rounded=0;orthogonalLoop=1;jettySize=auto;html=1;exitX=0.5;exitY=1;exitDx=0;exitDy=0;fontSize=18;" parent="1" source="cZAD780QYgb0k3q2szr9-4" target="cZAD780QYgb0k3q2szr9-29" edge="1">
                    <mxGeometry relative="1" as="geometry"/>
                </mxCell>
                <mxCell id="cZAD780QYgb0k3q2szr9-4" value="&lt;font style=&quot;font-size: 18px;&quot;&gt;링크 페이지&lt;/font&gt;" style="rounded=0;whiteSpace=wrap;html=1;" parent="1" vertex="1">
                    <mxGeometry x="-90" y="200" width="200" height="80" as="geometry"/>
                </mxCell>
                <mxCell id="cZAD780QYgb0k3q2szr9-17" style="edgeStyle=orthogonalEdgeStyle;rounded=0;orthogonalLoop=1;jettySize=auto;html=1;exitX=0.5;exitY=1;exitDx=0;exitDy=0;entryX=0.5;entryY=0;entryDx=0;entryDy=0;fontSize=18;" parent="1" source="cZAD780QYgb0k3q2szr9-5" target="cZAD780QYgb0k3q2szr9-16" edge="1">
                    <mxGeometry relative="1" as="geometry"/>
                </mxCell>
                <mxCell id="cZAD780QYgb0k3q2szr9-5" value="&lt;span style=&quot;font-size: 18px;&quot;&gt;최상위 순위&lt;/span&gt;" style="rounded=0;whiteSpace=wrap;html=1;" parent="1" vertex="1">
                    <mxGeometry x="130" y="200" width="200" height="80" as="geometry"/>
                </mxCell>
                <mxCell id="cZAD780QYgb0k3q2szr9-20" style="edgeStyle=orthogonalEdgeStyle;rounded=0;orthogonalLoop=1;jettySize=auto;html=1;exitX=0.5;exitY=1;exitDx=0;exitDy=0;entryX=0.5;entryY=0;entryDx=0;entryDy=0;fontSize=18;" parent="1" source="cZAD780QYgb0k3q2szr9-6" target="cZAD780QYgb0k3q2szr9-13" edge="1">
                    <mxGeometry relative="1" as="geometry"/>
                </mxCell>
                <mxCell id="cZAD780QYgb0k3q2szr9-6" value="&lt;font style=&quot;font-size: 18px;&quot;&gt;TFT관련 도움사이트&lt;/font&gt;" style="rounded=0;whiteSpace=wrap;html=1;" parent="1" vertex="1">
                    <mxGeometry x="560" y="200" width="200" height="80" as="geometry"/>
                </mxCell>
                <mxCell id="cZAD780QYgb0k3q2szr9-24" style="edgeStyle=orthogonalEdgeStyle;rounded=0;orthogonalLoop=1;jettySize=auto;html=1;exitX=0.5;exitY=1;exitDx=0;exitDy=0;entryX=0.5;entryY=0;entryDx=0;entryDy=0;fontSize=18;" parent="1" source="cZAD780QYgb0k3q2szr9-12" target="cZAD780QYgb0k3q2szr9-22" edge="1">
                    <mxGeometry relative="1" as="geometry"/>
                </mxCell>
                <mxCell id="cZAD780QYgb0k3q2szr9-12" value="&lt;span style=&quot;font-size: 18px;&quot;&gt;천상계 덱추천&lt;/span&gt;" style="rounded=0;whiteSpace=wrap;html=1;" parent="1" vertex="1">
                    <mxGeometry x="560" y="470" width="200" height="80" as="geometry"/>
                </mxCell>
                <mxCell id="cZAD780QYgb0k3q2szr9-23" style="edgeStyle=orthogonalEdgeStyle;rounded=0;orthogonalLoop=1;jettySize=auto;html=1;exitX=0.5;exitY=1;exitDx=0;exitDy=0;entryX=0.5;entryY=0;entryDx=0;entryDy=0;fontSize=18;" parent="1" source="cZAD780QYgb0k3q2szr9-13" target="cZAD780QYgb0k3q2szr9-12" edge="1">
                    <mxGeometry relative="1" as="geometry"/>
                </mxCell>
                <mxCell id="cZAD780QYgb0k3q2szr9-13" value="&lt;font style=&quot;font-size: 18px;&quot;&gt;패치노트&lt;/font&gt;" style="rounded=0;whiteSpace=wrap;html=1;" parent="1" vertex="1">
                    <mxGeometry x="560" y="340" width="200" height="80" as="geometry"/>
                </mxCell>
                <mxCell id="cZAD780QYgb0k3q2szr9-14" value="&lt;font style=&quot;font-size: 18px;&quot;&gt;기록 추출&lt;/font&gt;" style="rounded=0;whiteSpace=wrap;html=1;" parent="1" vertex="1">
                    <mxGeometry x="340" y="470" width="200" height="80" as="geometry"/>
                </mxCell>
                <mxCell id="cZAD780QYgb0k3q2szr9-19" style="edgeStyle=orthogonalEdgeStyle;rounded=0;orthogonalLoop=1;jettySize=auto;html=1;exitX=0.5;exitY=1;exitDx=0;exitDy=0;entryX=0.5;entryY=0;entryDx=0;entryDy=0;fontSize=18;" parent="1" source="cZAD780QYgb0k3q2szr9-15" target="cZAD780QYgb0k3q2szr9-14" edge="1">
                    <mxGeometry relative="1" as="geometry"/>
                </mxCell>
                <mxCell id="cZAD780QYgb0k3q2szr9-15" value="&lt;font style=&quot;font-size: 18px;&quot;&gt;티어 등급 선택&lt;/font&gt;" style="rounded=0;whiteSpace=wrap;html=1;" parent="1" vertex="1">
                    <mxGeometry x="340" y="340" width="200" height="80" as="geometry"/>
                </mxCell>
                <mxCell id="cZAD780QYgb0k3q2szr9-16" value="&lt;font style=&quot;font-size: 18px;&quot;&gt;순위표 출력&lt;/font&gt;" style="rounded=0;whiteSpace=wrap;html=1;" parent="1" vertex="1">
                    <mxGeometry x="130" y="340" width="200" height="80" as="geometry"/>
                </mxCell>
                <mxCell id="cZAD780QYgb0k3q2szr9-21" value="&lt;font style=&quot;font-size: 18px;&quot;&gt;유튜브 영상추천&lt;/font&gt;" style="rounded=0;whiteSpace=wrap;html=1;" parent="1" vertex="1">
                    <mxGeometry x="560" y="750" width="200" height="80" as="geometry"/>
                </mxCell>
                <mxCell id="cZAD780QYgb0k3q2szr9-25" style="edgeStyle=orthogonalEdgeStyle;rounded=0;orthogonalLoop=1;jettySize=auto;html=1;exitX=0.5;exitY=1;exitDx=0;exitDy=0;entryX=0.5;entryY=0;entryDx=0;entryDy=0;fontSize=18;" parent="1" source="cZAD780QYgb0k3q2szr9-22" target="cZAD780QYgb0k3q2szr9-21" edge="1">
                    <mxGeometry relative="1" as="geometry"/>
                </mxCell>
                <mxCell id="cZAD780QYgb0k3q2szr9-22" value="&lt;font style=&quot;font-size: 18px;&quot;&gt;아이템 통계&lt;/font&gt;" style="rounded=0;whiteSpace=wrap;html=1;" parent="1" vertex="1">
                    <mxGeometry x="560" y="610" width="200" height="80" as="geometry"/>
                </mxCell>
                <mxCell id="cZAD780QYgb0k3q2szr9-26" value="&lt;font style=&quot;font-size: 18px;&quot;&gt;아이템 목록&lt;/font&gt;" style="rounded=0;whiteSpace=wrap;html=1;" parent="1" vertex="1">
                    <mxGeometry x="-90" y="700" width="200" height="80" as="geometry"/>
                </mxCell>
                <mxCell id="cZAD780QYgb0k3q2szr9-33" style="edgeStyle=orthogonalEdgeStyle;rounded=0;orthogonalLoop=1;jettySize=auto;html=1;exitX=0.5;exitY=1;exitDx=0;exitDy=0;entryX=0.5;entryY=0;entryDx=0;entryDy=0;fontSize=18;" parent="1" source="cZAD780QYgb0k3q2szr9-27" target="cZAD780QYgb0k3q2szr9-26" edge="1">
                    <mxGeometry relative="1" as="geometry"/>
                </mxCell>
                <mxCell id="cZAD780QYgb0k3q2szr9-27" value="&lt;font style=&quot;font-size: 18px;&quot;&gt;시너지 목록&lt;/font&gt;" style="rounded=0;whiteSpace=wrap;html=1;" parent="1" vertex="1">
                    <mxGeometry x="-90" y="585" width="200" height="80" as="geometry"/>
                </mxCell>
                <mxCell id="cZAD780QYgb0k3q2szr9-32" style="edgeStyle=orthogonalEdgeStyle;rounded=0;orthogonalLoop=1;jettySize=auto;html=1;exitX=0.5;exitY=1;exitDx=0;exitDy=0;entryX=0.5;entryY=0;entryDx=0;entryDy=0;fontSize=18;" parent="1" source="cZAD780QYgb0k3q2szr9-28" target="cZAD780QYgb0k3q2szr9-27" edge="1">
                    <mxGeometry relative="1" as="geometry"/>
                </mxCell>
                <mxCell id="cZAD780QYgb0k3q2szr9-28" value="&lt;font style=&quot;font-size: 18px;&quot;&gt;증강체&lt;/font&gt;" style="rounded=0;whiteSpace=wrap;html=1;" parent="1" vertex="1">
                    <mxGeometry x="-90" y="470" width="200" height="80" as="geometry"/>
                </mxCell>
                <mxCell id="cZAD780QYgb0k3q2szr9-31" style="edgeStyle=orthogonalEdgeStyle;rounded=0;orthogonalLoop=1;jettySize=auto;html=1;exitX=0.5;exitY=1;exitDx=0;exitDy=0;entryX=0.5;entryY=0;entryDx=0;entryDy=0;fontSize=18;" parent="1" source="cZAD780QYgb0k3q2szr9-29" target="cZAD780QYgb0k3q2szr9-28" edge="1">
                    <mxGeometry relative="1" as="geometry"/>
                </mxCell>
                <mxCell id="cZAD780QYgb0k3q2szr9-29" value="&lt;font style=&quot;font-size: 18px;&quot;&gt;챔피언 목록&lt;/font&gt;" style="rounded=0;whiteSpace=wrap;html=1;" parent="1" vertex="1">
                    <mxGeometry x="-90" y="340" width="200" height="80" as="geometry"/>
                </mxCell>
            </root>
        </mxGraphModel>
    </diagram>
    <diagram id="dyRLk4r5QQY0tte5wLWL" name="스토리보드">
        <mxGraphModel dx="1204" dy="790" grid="1" gridSize="10" guides="1" tooltips="1" connect="1" arrows="1" fold="1" page="1" pageScale="1" pageWidth="827" pageHeight="1169" math="0" shadow="0">
            <root>
                <mxCell id="0"/>
                <mxCell id="1" parent="0"/>
                <mxCell id="hXT3PRQKkpCVRtYrAq_R-2" value="" style="rounded=0;whiteSpace=wrap;html=1;" parent="1" vertex="1">
                    <mxGeometry x="90" y="120" width="330" height="490" as="geometry"/>
                </mxCell>
                <mxCell id="hXT3PRQKkpCVRtYrAq_R-3" value="하단 페이지" style="rounded=0;whiteSpace=wrap;html=1;" parent="1" vertex="1">
                    <mxGeometry x="90" y="490" width="330" height="120" as="geometry"/>
                </mxCell>
                <mxCell id="hXT3PRQKkpCVRtYrAq_R-4" value="contents 링크 하나" style="rounded=0;whiteSpace=wrap;html=1;" parent="1" vertex="1">
                    <mxGeometry x="175" y="400" width="160" height="30" as="geometry"/>
                </mxCell>
                <mxCell id="hXT3PRQKkpCVRtYrAq_R-10" value="메인 첫 페이지" style="swimlane;fontStyle=0;childLayout=stackLayout;horizontal=1;startSize=30;horizontalStack=0;resizeParent=1;resizeParentMax=0;resizeLast=0;collapsible=1;marginBottom=0;" parent="1" vertex="1">
                    <mxGeometry x="430" y="200" width="250" height="120" as="geometry"/>
                </mxCell>
                <mxCell id="hXT3PRQKkpCVRtYrAq_R-11" value="페이지 링크 - 페이지연결된것들 링크로 걸기" style="text;strokeColor=none;fillColor=none;align=left;verticalAlign=middle;spacingLeft=4;spacingRight=4;overflow=hidden;points=[[0,0.5],[1,0.5]];portConstraint=eastwest;rotatable=0;" parent="hXT3PRQKkpCVRtYrAq_R-10" vertex="1">
                    <mxGeometry y="30" width="250" height="30" as="geometry"/>
                </mxCell>
                <mxCell id="hXT3PRQKkpCVRtYrAq_R-12" value="소개글 및 배경 이미지 삽입하기" style="text;strokeColor=none;fillColor=none;align=left;verticalAlign=middle;spacingLeft=4;spacingRight=4;overflow=hidden;points=[[0,0.5],[1,0.5]];portConstraint=eastwest;rotatable=0;" parent="hXT3PRQKkpCVRtYrAq_R-10" vertex="1">
                    <mxGeometry y="60" width="250" height="30" as="geometry"/>
                </mxCell>
                <mxCell id="hXT3PRQKkpCVRtYrAq_R-13" value="컨텐츠 링크로 이동" style="text;strokeColor=none;fillColor=none;align=left;verticalAlign=middle;spacingLeft=4;spacingRight=4;overflow=hidden;points=[[0,0.5],[1,0.5]];portConstraint=eastwest;rotatable=0;" parent="hXT3PRQKkpCVRtYrAq_R-10" vertex="1">
                    <mxGeometry y="90" width="250" height="30" as="geometry"/>
                </mxCell>
                <mxCell id="hXT3PRQKkpCVRtYrAq_R-14" value="소개글" style="rounded=0;whiteSpace=wrap;html=1;" parent="1" vertex="1">
                    <mxGeometry x="150" y="220" width="230" height="120" as="geometry"/>
                </mxCell>
                <mxCell id="hXT3PRQKkpCVRtYrAq_R-15" value="네비게이션 메뉴" style="rounded=0;whiteSpace=wrap;html=1;" parent="1" vertex="1">
                    <mxGeometry x="90" y="120" width="330" height="40" as="geometry"/>
                </mxCell>
                <mxCell id="hXT3PRQKkpCVRtYrAq_R-16" value="" style="rounded=0;whiteSpace=wrap;html=1;" parent="1" vertex="1">
                    <mxGeometry x="90" y="670" width="330" height="490" as="geometry"/>
                </mxCell>
                <mxCell id="hXT3PRQKkpCVRtYrAq_R-17" value="하단 페이지" style="rounded=0;whiteSpace=wrap;html=1;" parent="1" vertex="1">
                    <mxGeometry x="90" y="1070" width="330" height="90" as="geometry"/>
                </mxCell>
                <mxCell id="hXT3PRQKkpCVRtYrAq_R-18" value="챔피언 목록" style="rounded=0;whiteSpace=wrap;html=1;" parent="1" vertex="1">
                    <mxGeometry x="90" y="830" width="330" height="60" as="geometry"/>
                </mxCell>
                <mxCell id="hXT3PRQKkpCVRtYrAq_R-19" value="2번째 페이지" style="swimlane;fontStyle=0;childLayout=stackLayout;horizontal=1;startSize=30;horizontalStack=0;resizeParent=1;resizeParentMax=0;resizeLast=0;collapsible=1;marginBottom=0;" parent="1" vertex="1">
                    <mxGeometry x="430" y="750" width="250" height="120" as="geometry"/>
                </mxCell>
                <mxCell id="hXT3PRQKkpCVRtYrAq_R-20" value="페이지 링크 - 페이지연결된것들 링크로 걸기" style="text;strokeColor=none;fillColor=none;align=left;verticalAlign=middle;spacingLeft=4;spacingRight=4;overflow=hidden;points=[[0,0.5],[1,0.5]];portConstraint=eastwest;rotatable=0;" parent="hXT3PRQKkpCVRtYrAq_R-19" vertex="1">
                    <mxGeometry y="30" width="250" height="30" as="geometry"/>
                </mxCell>
                <mxCell id="hXT3PRQKkpCVRtYrAq_R-21" value="소개글 및 배경 이미지 삽입하기" style="text;strokeColor=none;fillColor=none;align=left;verticalAlign=middle;spacingLeft=4;spacingRight=4;overflow=hidden;points=[[0,0.5],[1,0.5]];portConstraint=eastwest;rotatable=0;" parent="hXT3PRQKkpCVRtYrAq_R-19" vertex="1">
                    <mxGeometry y="60" width="250" height="30" as="geometry"/>
                </mxCell>
                <mxCell id="hXT3PRQKkpCVRtYrAq_R-22" value="컨텐츠 링크로 이동" style="text;strokeColor=none;fillColor=none;align=left;verticalAlign=middle;spacingLeft=4;spacingRight=4;overflow=hidden;points=[[0,0.5],[1,0.5]];portConstraint=eastwest;rotatable=0;" parent="hXT3PRQKkpCVRtYrAq_R-19" vertex="1">
                    <mxGeometry y="90" width="250" height="30" as="geometry"/>
                </mxCell>
                <mxCell id="hXT3PRQKkpCVRtYrAq_R-23" value="소개글" style="rounded=0;whiteSpace=wrap;html=1;" parent="1" vertex="1">
                    <mxGeometry x="90" y="710" width="330" height="120" as="geometry"/>
                </mxCell>
                <mxCell id="hXT3PRQKkpCVRtYrAq_R-24" value="네비게이션 메뉴" style="rounded=0;whiteSpace=wrap;html=1;" parent="1" vertex="1">
                    <mxGeometry x="90" y="670" width="330" height="40" as="geometry"/>
                </mxCell>
                <mxCell id="hXT3PRQKkpCVRtYrAq_R-25" value="" style="rounded=0;whiteSpace=wrap;html=1;" parent="1" vertex="1">
                    <mxGeometry x="90" y="1210" width="330" height="490" as="geometry"/>
                </mxCell>
                <mxCell id="hXT3PRQKkpCVRtYrAq_R-26" value="하단 페이지" style="rounded=0;whiteSpace=wrap;html=1;" parent="1" vertex="1">
                    <mxGeometry x="90" y="1580" width="330" height="120" as="geometry"/>
                </mxCell>
                <mxCell id="hXT3PRQKkpCVRtYrAq_R-27" value="상위티어 확인용 버튼 + 출력값 출력 화면" style="rounded=0;whiteSpace=wrap;html=1;" parent="1" vertex="1">
                    <mxGeometry x="90" y="1420" width="330" height="160" as="geometry"/>
                </mxCell>
                <mxCell id="hXT3PRQKkpCVRtYrAq_R-28" value="3번째 페이지" style="swimlane;fontStyle=0;childLayout=stackLayout;horizontal=1;startSize=30;horizontalStack=0;resizeParent=1;resizeParentMax=0;resizeLast=0;collapsible=1;marginBottom=0;" parent="1" vertex="1">
                    <mxGeometry x="430" y="1290" width="250" height="120" as="geometry"/>
                </mxCell>
                <mxCell id="hXT3PRQKkpCVRtYrAq_R-29" value="페이지 링크 - 페이지연결된것들 링크로 걸기" style="text;strokeColor=none;fillColor=none;align=left;verticalAlign=middle;spacingLeft=4;spacingRight=4;overflow=hidden;points=[[0,0.5],[1,0.5]];portConstraint=eastwest;rotatable=0;" parent="hXT3PRQKkpCVRtYrAq_R-28" vertex="1">
                    <mxGeometry y="30" width="250" height="30" as="geometry"/>
                </mxCell>
                <mxCell id="hXT3PRQKkpCVRtYrAq_R-30" value="티어 선택 및 결과값 출력" style="text;strokeColor=none;fillColor=none;align=left;verticalAlign=middle;spacingLeft=4;spacingRight=4;overflow=hidden;points=[[0,0.5],[1,0.5]];portConstraint=eastwest;rotatable=0;" parent="hXT3PRQKkpCVRtYrAq_R-28" vertex="1">
                    <mxGeometry y="60" width="250" height="30" as="geometry"/>
                </mxCell>
                <mxCell id="hXT3PRQKkpCVRtYrAq_R-31" value="컨텐츠 링크로 이동" style="text;strokeColor=none;fillColor=none;align=left;verticalAlign=middle;spacingLeft=4;spacingRight=4;overflow=hidden;points=[[0,0.5],[1,0.5]];portConstraint=eastwest;rotatable=0;" parent="hXT3PRQKkpCVRtYrAq_R-28" vertex="1">
                    <mxGeometry y="90" width="250" height="30" as="geometry"/>
                </mxCell>
                <mxCell id="hXT3PRQKkpCVRtYrAq_R-32" value="소개글" style="rounded=0;whiteSpace=wrap;html=1;" parent="1" vertex="1">
                    <mxGeometry x="90" y="1250" width="330" height="170" as="geometry"/>
                </mxCell>
                <mxCell id="hXT3PRQKkpCVRtYrAq_R-33" value="네비게이션 메뉴" style="rounded=0;whiteSpace=wrap;html=1;" parent="1" vertex="1">
                    <mxGeometry x="90" y="1210" width="330" height="40" as="geometry"/>
                </mxCell>
                <mxCell id="RwYnqw8Bz5iw0iTWVtVk-1" value="" style="rounded=0;whiteSpace=wrap;html=1;" parent="1" vertex="1">
                    <mxGeometry x="90" y="2260" width="330" height="490" as="geometry"/>
                </mxCell>
                <mxCell id="RwYnqw8Bz5iw0iTWVtVk-2" value="하단 페이지" style="rounded=0;whiteSpace=wrap;html=1;" parent="1" vertex="1">
                    <mxGeometry x="90" y="2690" width="330" height="60" as="geometry"/>
                </mxCell>
                <mxCell id="RwYnqw8Bz5iw0iTWVtVk-3" value="아이템 통계" style="rounded=0;whiteSpace=wrap;html=1;" parent="1" vertex="1">
                    <mxGeometry x="310" y="2440" width="110" height="50" as="geometry"/>
                </mxCell>
                <mxCell id="RwYnqw8Bz5iw0iTWVtVk-4" value="5번째 페이지" style="swimlane;fontStyle=0;childLayout=stackLayout;horizontal=1;startSize=30;horizontalStack=0;resizeParent=1;resizeParentMax=0;resizeLast=0;collapsible=1;marginBottom=0;" parent="1" vertex="1">
                    <mxGeometry x="430" y="2340" width="250" height="120" as="geometry"/>
                </mxCell>
                <mxCell id="RwYnqw8Bz5iw0iTWVtVk-5" value="페이지 링크 - 페이지연결된것들 링크로 걸기" style="text;strokeColor=none;fillColor=none;align=left;verticalAlign=middle;spacingLeft=4;spacingRight=4;overflow=hidden;points=[[0,0.5],[1,0.5]];portConstraint=eastwest;rotatable=0;" parent="RwYnqw8Bz5iw0iTWVtVk-4" vertex="1">
                    <mxGeometry y="30" width="250" height="30" as="geometry"/>
                </mxCell>
                <mxCell id="RwYnqw8Bz5iw0iTWVtVk-6" value="소개글 및 배경 이미지 삽입하기" style="text;strokeColor=none;fillColor=none;align=left;verticalAlign=middle;spacingLeft=4;spacingRight=4;overflow=hidden;points=[[0,0.5],[1,0.5]];portConstraint=eastwest;rotatable=0;" parent="RwYnqw8Bz5iw0iTWVtVk-4" vertex="1">
                    <mxGeometry y="60" width="250" height="30" as="geometry"/>
                </mxCell>
                <mxCell id="RwYnqw8Bz5iw0iTWVtVk-7" value="컨텐츠 링크로 이동" style="text;strokeColor=none;fillColor=none;align=left;verticalAlign=middle;spacingLeft=4;spacingRight=4;overflow=hidden;points=[[0,0.5],[1,0.5]];portConstraint=eastwest;rotatable=0;" parent="RwYnqw8Bz5iw0iTWVtVk-4" vertex="1">
                    <mxGeometry y="90" width="250" height="30" as="geometry"/>
                </mxCell>
                <mxCell id="RwYnqw8Bz5iw0iTWVtVk-8" value="기타 정보 모음 화면" style="rounded=0;whiteSpace=wrap;html=1;" parent="1" vertex="1">
                    <mxGeometry x="90" y="2300" width="330" height="140" as="geometry"/>
                </mxCell>
                <mxCell id="RwYnqw8Bz5iw0iTWVtVk-9" value="네비게이션 메뉴" style="rounded=0;whiteSpace=wrap;html=1;" parent="1" vertex="1">
                    <mxGeometry x="90" y="2260" width="330" height="40" as="geometry"/>
                </mxCell>
                <mxCell id="RwYnqw8Bz5iw0iTWVtVk-10" value="" style="rounded=0;whiteSpace=wrap;html=1;" parent="1" vertex="1">
                    <mxGeometry x="90" y="1740" width="330" height="490" as="geometry"/>
                </mxCell>
                <mxCell id="RwYnqw8Bz5iw0iTWVtVk-11" value="하단 페이지" style="rounded=0;whiteSpace=wrap;html=1;" parent="1" vertex="1">
                    <mxGeometry x="90" y="2110" width="330" height="120" as="geometry"/>
                </mxCell>
                <mxCell id="RwYnqw8Bz5iw0iTWVtVk-13" value="4번째 페이지" style="swimlane;fontStyle=0;childLayout=stackLayout;horizontal=1;startSize=30;horizontalStack=0;resizeParent=1;resizeParentMax=0;resizeLast=0;collapsible=1;marginBottom=0;" parent="1" vertex="1">
                    <mxGeometry x="430" y="1820" width="250" height="120" as="geometry"/>
                </mxCell>
                <mxCell id="RwYnqw8Bz5iw0iTWVtVk-14" value="페이지 링크 - 페이지연결된것들 링크로 걸기" style="text;strokeColor=none;fillColor=none;align=left;verticalAlign=middle;spacingLeft=4;spacingRight=4;overflow=hidden;points=[[0,0.5],[1,0.5]];portConstraint=eastwest;rotatable=0;" parent="RwYnqw8Bz5iw0iTWVtVk-13" vertex="1">
                    <mxGeometry y="30" width="250" height="30" as="geometry"/>
                </mxCell>
                <mxCell id="RwYnqw8Bz5iw0iTWVtVk-15" value="티어, 등급 선택 및 결과값 출력" style="text;strokeColor=none;fillColor=none;align=left;verticalAlign=middle;spacingLeft=4;spacingRight=4;overflow=hidden;points=[[0,0.5],[1,0.5]];portConstraint=eastwest;rotatable=0;" parent="RwYnqw8Bz5iw0iTWVtVk-13" vertex="1">
                    <mxGeometry y="60" width="250" height="30" as="geometry"/>
                </mxCell>
                <mxCell id="RwYnqw8Bz5iw0iTWVtVk-16" value="컨텐츠 링크로 이동" style="text;strokeColor=none;fillColor=none;align=left;verticalAlign=middle;spacingLeft=4;spacingRight=4;overflow=hidden;points=[[0,0.5],[1,0.5]];portConstraint=eastwest;rotatable=0;" parent="RwYnqw8Bz5iw0iTWVtVk-13" vertex="1">
                    <mxGeometry y="90" width="250" height="30" as="geometry"/>
                </mxCell>
                <mxCell id="RwYnqw8Bz5iw0iTWVtVk-17" value="하위티어 조건 선택" style="rounded=0;whiteSpace=wrap;html=1;" parent="1" vertex="1">
                    <mxGeometry x="90" y="1780" width="330" height="330" as="geometry"/>
                </mxCell>
                <mxCell id="RwYnqw8Bz5iw0iTWVtVk-18" value="네비게이션 메뉴" style="rounded=0;whiteSpace=wrap;html=1;" parent="1" vertex="1">
                    <mxGeometry x="90" y="1740" width="330" height="40" as="geometry"/>
                </mxCell>
                <mxCell id="RwYnqw8Bz5iw0iTWVtVk-19" value="증강체" style="rounded=0;whiteSpace=wrap;html=1;" parent="1" vertex="1">
                    <mxGeometry x="90" y="890" width="330" height="60" as="geometry"/>
                </mxCell>
                <mxCell id="RwYnqw8Bz5iw0iTWVtVk-20" value="아래쪽 바로 갈 수 있는 링크" style="rounded=0;whiteSpace=wrap;html=1;" parent="1" vertex="1">
                    <mxGeometry x="130" y="790" width="260" height="20" as="geometry"/>
                </mxCell>
                <mxCell id="RwYnqw8Bz5iw0iTWVtVk-21" value="시너지 목록" style="rounded=0;whiteSpace=wrap;html=1;" parent="1" vertex="1">
                    <mxGeometry x="90" y="950" width="330" height="60" as="geometry"/>
                </mxCell>
                <mxCell id="RwYnqw8Bz5iw0iTWVtVk-23" value="아이템 목록" style="rounded=0;whiteSpace=wrap;html=1;" parent="1" vertex="1">
                    <mxGeometry x="90" y="1010" width="330" height="60" as="geometry"/>
                </mxCell>
                <mxCell id="RwYnqw8Bz5iw0iTWVtVk-25" value="링크" style="rounded=0;whiteSpace=wrap;html=1;" parent="1" vertex="1">
                    <mxGeometry x="320" y="1030" width="70" height="20" as="geometry"/>
                </mxCell>
                <mxCell id="RwYnqw8Bz5iw0iTWVtVk-26" value="링크" style="rounded=0;whiteSpace=wrap;html=1;" parent="1" vertex="1">
                    <mxGeometry x="120" y="980" width="70" height="20" as="geometry"/>
                </mxCell>
                <mxCell id="RwYnqw8Bz5iw0iTWVtVk-27" value="링크" style="rounded=0;whiteSpace=wrap;html=1;" parent="1" vertex="1">
                    <mxGeometry x="320" y="920" width="70" height="20" as="geometry"/>
                </mxCell>
                <mxCell id="RwYnqw8Bz5iw0iTWVtVk-28" value="링크" style="rounded=0;whiteSpace=wrap;html=1;" parent="1" vertex="1">
                    <mxGeometry x="120" y="850" width="70" height="20" as="geometry"/>
                </mxCell>
                <mxCell id="RwYnqw8Bz5iw0iTWVtVk-30" value="상위티어 검색가능한 링크" style="rounded=0;whiteSpace=wrap;html=1;" parent="1" vertex="1">
                    <mxGeometry x="140" y="1350" width="220" height="70" as="geometry"/>
                </mxCell>
                <mxCell id="RwYnqw8Bz5iw0iTWVtVk-32" value="결과값" style="rounded=0;whiteSpace=wrap;html=1;" parent="1" vertex="1">
                    <mxGeometry x="195" y="1970" width="120" height="140" as="geometry"/>
                </mxCell>
                <mxCell id="RwYnqw8Bz5iw0iTWVtVk-33" value="덱 추천" style="rounded=0;whiteSpace=wrap;html=1;" parent="1" vertex="1">
                    <mxGeometry x="200" y="2440" width="110" height="50" as="geometry"/>
                </mxCell>
                <mxCell id="RwYnqw8Bz5iw0iTWVtVk-34" value="패치노트" style="rounded=0;whiteSpace=wrap;html=1;" parent="1" vertex="1">
                    <mxGeometry x="90" y="2440" width="110" height="50" as="geometry"/>
                </mxCell>
                <mxCell id="RwYnqw8Bz5iw0iTWVtVk-36" value="유튜버 추천 영상1" style="rounded=0;whiteSpace=wrap;html=1;" parent="1" vertex="1">
                    <mxGeometry x="90" y="2490" width="330" height="140" as="geometry"/>
                </mxCell>
                <mxCell id="IS2C-1axR1cIVVxgedeJ-1" value="유튜버 추천영상 2" style="rounded=0;whiteSpace=wrap;html=1;" vertex="1" parent="1">
                    <mxGeometry x="90" y="2630" width="330" height="60" as="geometry"/>
                </mxCell>
                <mxCell id="-BzfaZGrDlROPcue3O3z-1" value="사이트이름" style="rounded=0;whiteSpace=wrap;html=1;" vertex="1" parent="1">
                    <mxGeometry x="90" y="120" width="80" height="40" as="geometry"/>
                </mxCell>
                <mxCell id="-BzfaZGrDlROPcue3O3z-2" value="&#10;&#10;&lt;span style=&quot;color: rgb(240, 240, 240); font-family: helvetica; font-size: 12px; font-style: normal; font-weight: 400; letter-spacing: normal; text-align: center; text-indent: 0px; text-transform: none; word-spacing: 0px; background-color: rgb(42, 42, 42); display: inline; float: none;&quot;&gt;사이트이름&lt;/span&gt;&#10;&#10;" style="rounded=0;whiteSpace=wrap;html=1;" vertex="1" parent="1">
                    <mxGeometry x="90" y="2260" width="80" height="40" as="geometry"/>
                </mxCell>
                <mxCell id="-BzfaZGrDlROPcue3O3z-3" value="&#10;&#10;&lt;span style=&quot;color: rgb(240, 240, 240); font-family: helvetica; font-size: 12px; font-style: normal; font-weight: 400; letter-spacing: normal; text-align: center; text-indent: 0px; text-transform: none; word-spacing: 0px; background-color: rgb(42, 42, 42); display: inline; float: none;&quot;&gt;사이트이름&lt;/span&gt;&#10;&#10;" style="rounded=0;whiteSpace=wrap;html=1;" vertex="1" parent="1">
                    <mxGeometry x="90" y="1740" width="80" height="40" as="geometry"/>
                </mxCell>
                <mxCell id="-BzfaZGrDlROPcue3O3z-4" value="&#10;&#10;&lt;span style=&quot;color: rgb(240, 240, 240); font-family: helvetica; font-size: 12px; font-style: normal; font-weight: 400; letter-spacing: normal; text-align: center; text-indent: 0px; text-transform: none; word-spacing: 0px; background-color: rgb(42, 42, 42); display: inline; float: none;&quot;&gt;사이트이름&lt;/span&gt;&#10;&#10;" style="rounded=0;whiteSpace=wrap;html=1;" vertex="1" parent="1">
                    <mxGeometry x="90" y="1210" width="80" height="40" as="geometry"/>
                </mxCell>
                <mxCell id="-BzfaZGrDlROPcue3O3z-5" value="&#10;&#10;&lt;span style=&quot;color: rgb(240, 240, 240); font-family: helvetica; font-size: 12px; font-style: normal; font-weight: 400; letter-spacing: normal; text-align: center; text-indent: 0px; text-transform: none; word-spacing: 0px; background-color: rgb(42, 42, 42); display: inline; float: none;&quot;&gt;사이트이름&lt;/span&gt;&#10;&#10;" style="rounded=0;whiteSpace=wrap;html=1;" vertex="1" parent="1">
                    <mxGeometry x="90" y="670" width="80" height="40" as="geometry"/>
                </mxCell>
            </root>
        </mxGraphModel>
    </diagram>
</mxfile>